<svg width="82" height="52" viewBox="0 0 82 52" fill="none" xmlns="http://www.w3.org/2000/svg">
<path d="M80.999 0C81.1716 2.76152 80.5011 7.04536 77.9453 11.0029C75.7034 14.4745 72.0227 17.6745 66.2412 19.3789C64.5147 24.8202 59.6246 30.6371 51.6943 33.9922C46.8315 36.0495 42.8702 36.9545 39.6963 37.0342C34.9257 44.197 24.4126 50.4181 7.43066 48.0264L7.43555 47.9893L6.5 51.0312L0 44.5312H8.5L7.72266 47.0566C23.846 49.2828 33.8042 43.5787 38.4893 37.0234C37.8508 36.9952 37.2479 36.9325 36.6797 36.835C33.0988 36.2205 30.9098 34.2941 29.8721 31.9355C28.8447 29.6006 28.9661 26.89 29.8945 24.7051C30.8215 22.524 32.5982 20.7774 34.9482 20.5342C36.8543 20.337 38.4588 20.7035 39.7119 21.5264C40.9642 22.3487 41.8238 23.5993 42.29 25.0938C43.2178 28.0682 42.6061 32.0415 40.4346 35.8418C40.4032 35.8967 40.3699 35.951 40.3379 36.0059C43.2365 35.8285 46.8562 34.9528 51.3057 33.0703C58.6932 29.9446 63.2814 24.6506 65.0771 19.6934C64.5968 19.8125 64.1034 19.9237 63.5957 20.0225C59.0303 20.9102 55.6834 20.4827 53.4297 19.2852C51.1595 18.0789 50.0413 16.1098 49.9385 14.0566C49.7341 9.96811 53.5328 5.74855 59.5645 6.53516C62.582 6.92875 64.7077 8.41689 65.8809 10.5762C67.0328 12.6964 67.2329 15.4021 66.5586 18.2344C71.7654 16.5585 75.0713 13.6082 77.1045 10.46C79.5321 6.7009 80.1617 2.63432 80.001 0.0625L80.999 0ZM39.1631 22.3623C38.135 21.6872 36.7705 21.3506 35.0518 21.5283C33.1746 21.7225 31.6499 23.1324 30.8154 25.0957C29.9826 27.0552 29.8827 29.4777 30.7871 31.5332C31.6813 33.5652 33.5775 35.2873 36.8486 35.8486C37.5501 35.969 38.3157 36.0355 39.1484 36.04C39.2937 35.809 39.4329 35.5776 39.5654 35.3457C41.6437 31.7088 42.157 28.0254 41.335 25.3906C40.9262 24.0806 40.1919 23.0379 39.1631 22.3623ZM59.4355 7.52734C53.9676 6.81413 50.7663 10.5946 50.9365 14.0059C51.0214 15.7025 51.9345 17.3587 53.8984 18.4023C55.879 19.4548 58.9698 19.9023 63.4043 19.04C64.1109 18.9026 64.7888 18.7428 65.4395 18.5654C65.4845 18.4045 65.5284 18.2447 65.5674 18.085C66.2252 15.3916 66.0164 12.9209 65.002 11.0537C63.9968 9.20375 62.1679 7.8838 59.4355 7.52734Z" fill="white"/>
</svg>
